<svg width="22" height="23" viewBox="0 0 22 23" fill="none" xmlns="http://www.w3.org/2000/svg">
<path fill-rule="evenodd" clip-rule="evenodd" d="M20.6703 4.47739C20.3827 2.37661 18.0356 1.70332 16.5011 2.8026C15.2861 3.67295 13.7227 4.71883 12.1821 5.54324C10.5982 6.3908 9.19468 6.91665 8.24996 6.91665H3.66663C2.14785 6.91665 0.916626 8.14786 0.916626 9.66665V12.4167C0.916626 13.8681 2.04117 15.057 3.46656 15.1595L3.09496 17.0174C2.81673 18.4086 3.64247 19.7831 5.00136 20.1908L6.11315 20.5243C7.63485 20.9808 9.22566 20.0567 9.58298 18.5086L10.246 15.6355C10.8423 15.8654 11.4952 16.1725 12.1821 16.54C13.7227 17.3645 15.2861 18.4104 16.5011 19.2807C18.0356 20.3799 20.3827 19.7066 20.6703 17.6059C20.8856 16.0336 21.0833 13.8305 21.0833 11.0417C21.0833 8.25279 20.8856 6.04963 20.6703 4.47739ZM17.5687 4.29297C17.8558 4.08733 18.1727 4.06814 18.4119 4.15748C18.6391 4.24228 18.8129 4.42666 18.854 4.72609C19.0585 6.21961 19.25 8.33962 19.25 11.0417C19.25 13.7436 19.0585 15.8637 18.854 17.3572C18.8129 17.6566 18.6391 17.841 18.4119 17.9258C18.1727 18.0151 17.8558 17.996 17.5687 17.7903C16.3234 16.8982 14.6873 15.8014 13.0471 14.9236C11.45 14.069 9.69133 13.3333 8.24996 13.3333H3.66663C3.16037 13.3333 2.74996 12.9229 2.74996 12.4167V9.66665C2.74996 9.16038 3.16037 8.74998 3.66663 8.74998H8.24996C9.69133 8.74998 11.45 8.01428 13.0471 7.15969C14.6873 6.28196 16.3234 5.18507 17.5687 4.29297ZM8.47062 15.1755C8.39455 15.1696 8.32095 15.1667 8.24996 15.1667H5.33477L4.8927 17.377C4.79996 17.8407 5.0752 18.2989 5.52816 18.4348L6.63995 18.7683C7.14719 18.9205 7.67747 18.6124 7.79655 18.0964L8.47062 15.1755Z" fill="#111827"/>
</svg>
