<svg width="36" height="36" viewBox="0 0 36 36" fill="none" xmlns="http://www.w3.org/2000/svg">
<g clip-path="url(#clip0_2_388)">
<path d="M28 0.5H8C3.85786 0.5 0.5 3.85786 0.5 8V28C0.5 32.1421 3.85786 35.5 8 35.5H28C32.1421 35.5 35.5 32.1421 35.5 28V8C35.5 3.85786 32.1421 0.5 28 0.5Z" fill="url(#paint0_radial_2_388)"/>
<path d="M28 0.5H8C3.85786 0.5 0.5 3.85786 0.5 8V28C0.5 32.1421 3.85786 35.5 8 35.5H28C32.1421 35.5 35.5 32.1421 35.5 28V8C35.5 3.85786 32.1421 0.5 28 0.5Z" fill="url(#paint1_radial_2_388)"/>
<path d="M28 0.5H8C3.85786 0.5 0.5 3.85786 0.5 8V28C0.5 32.1421 3.85786 35.5 8 35.5H28C32.1421 35.5 35.5 32.1421 35.5 28V8C35.5 3.85786 32.1421 0.5 28 0.5Z" fill="url(#paint2_radial_2_388)"/>
<path d="M26.75 11.125C26.75 12.1605 25.9105 13 24.875 13C23.8395 13 23 12.1605 23 11.125C23 10.0895 23.8395 9.25 24.875 9.25C25.9105 9.25 26.75 10.0895 26.75 11.125Z" fill="white"/>
<path fill-rule="evenodd" clip-rule="evenodd" d="M18 24.25C21.4517 24.25 24.25 21.4517 24.25 18C24.25 14.5482 21.4517 11.75 18 11.75C14.5482 11.75 11.75 14.5482 11.75 18C11.75 21.4517 14.5482 24.25 18 24.25ZM18 21.75C20.0711 21.75 21.75 20.0711 21.75 18C21.75 15.9289 20.0711 14.25 18 14.25C15.9289 14.25 14.25 15.9289 14.25 18C14.25 20.0711 15.9289 21.75 18 21.75Z" fill="white"/>
<path fill-rule="evenodd" clip-rule="evenodd" d="M5.5 17.5C5.5 13.2996 5.5 11.1994 6.31745 9.59508C7.0365 8.18385 8.18385 7.0365 9.59508 6.31745C11.1994 5.5 13.2996 5.5 17.5 5.5H18.5C22.7004 5.5 24.8006 5.5 26.4049 6.31745C27.8161 7.0365 28.9635 8.18385 29.6825 9.59508C30.5 11.1994 30.5 13.2996 30.5 17.5V18.5C30.5 22.7004 30.5 24.8006 29.6825 26.4049C28.9635 27.8161 27.8161 28.9635 26.4049 29.6825C24.8006 30.5 22.7004 30.5 18.5 30.5H17.5C13.2996 30.5 11.1994 30.5 9.59508 29.6825C8.18385 28.9635 7.0365 27.8161 6.31745 26.4049C5.5 24.8006 5.5 22.7004 5.5 18.5V17.5ZM17.5 8H18.5C20.6415 8 22.0971 8.00195 23.2224 8.09387C24.3185 8.18342 24.879 8.34574 25.27 8.54496C26.2108 9.02434 26.9756 9.78924 27.455 10.73C27.6542 11.121 27.8166 11.6815 27.9061 12.7776C27.998 13.9029 28 15.3585 28 17.5V18.5C28 20.6415 27.998 22.0971 27.9061 23.2224C27.8166 24.3185 27.6542 24.879 27.455 25.27C26.9756 26.2108 26.2108 26.9756 25.27 27.455C24.879 27.6542 24.3185 27.8166 23.2224 27.9061C22.0971 27.998 20.6415 28 18.5 28H17.5C15.3585 28 13.9029 27.998 12.7776 27.9061C11.6815 27.8166 11.121 27.6542 10.73 27.455C9.78924 26.9756 9.02434 26.2108 8.54496 25.27C8.34574 24.879 8.18342 24.3185 8.09387 23.2224C8.00195 22.0971 8 20.6415 8 18.5V17.5C8 15.3585 8.00195 13.9029 8.09387 12.7776C8.18342 11.6815 8.34574 11.121 8.54496 10.73C9.02434 9.78924 9.78924 9.02434 10.73 8.54496C11.121 8.34574 11.6815 8.18342 12.7776 8.09387C13.9029 8.00195 15.3585 8 17.5 8Z" fill="white"/>
</g>
<defs>
<radialGradient id="paint0_radial_2_388" cx="0" cy="0" r="1" gradientUnits="userSpaceOnUse" gradientTransform="translate(13 26.75) rotate(-55.3758) scale(31.8995)">
<stop stop-color="#B13589"/>
<stop offset="0.79309" stop-color="#C62F94"/>
<stop offset="1" stop-color="#8A3AC8"/>
</radialGradient>
<radialGradient id="paint1_radial_2_388" cx="0" cy="0" r="1" gradientUnits="userSpaceOnUse" gradientTransform="translate(11.75 36.75) rotate(-65.1363) scale(28.2428)">
<stop stop-color="#E0E8B7"/>
<stop offset="0.444662" stop-color="#FB8A2E"/>
<stop offset="0.71474" stop-color="#E2425C"/>
<stop offset="1" stop-color="#E2425C" stop-opacity="0"/>
</radialGradient>
<radialGradient id="paint2_radial_2_388" cx="0" cy="0" r="1" gradientUnits="userSpaceOnUse" gradientTransform="translate(-1.375 1.75) rotate(-8.1301) scale(48.6136 10.3979)">
<stop offset="0.156701" stop-color="#406ADC"/>
<stop offset="0.467799" stop-color="#6A45BE"/>
<stop offset="1" stop-color="#6A45BE" stop-opacity="0"/>
</radialGradient>
<clipPath id="clip0_2_388">
<rect width="36" height="36" rx="7" fill="white"/>
</clipPath>
</defs>
</svg>
