<svg width="21" height="20" viewBox="0 0 21 20" fill="none" xmlns="http://www.w3.org/2000/svg">
<path d="M3.83398 17.5H17.1673M10.084 17.5C8.90145 17.4998 7.74324 17.164 6.74389 16.5318C5.74453 15.8996 4.94504 14.9969 4.43827 13.9284C3.93149 12.86 3.73823 11.6697 3.88093 10.4958C4.02363 9.3219 4.49644 8.21257 5.24443 7.29666C5.99243 6.38075 6.98492 5.69583 8.10664 5.32146C9.22835 4.9471 10.4333 4.89864 11.5814 5.18172C12.7296 5.4648 13.7739 6.0678 14.593 6.92069C15.4121 7.77358 15.9725 8.84135 16.209 10" stroke="black" stroke-opacity="0.83" stroke-width="1.66667" stroke-linecap="round" stroke-linejoin="round"/>
<path d="M8 10V2.5M11.3333 10V2.5" stroke="black" stroke-opacity="0.83" stroke-width="1.66667" stroke-linecap="round" stroke-linejoin="round"/>
</svg>
