<svg width="36" height="36" viewBox="0 0 36 36" fill="none" xmlns="http://www.w3.org/2000/svg">
<rect width="36" height="36" rx="7.2" fill="black"/>
<path d="M23.2007 14.6476C24.7514 15.7601 26.6511 16.4146 28.7029 16.4146V12.4523C28.3146 12.4524 27.9273 12.4117 27.5474 12.331V15.4499C25.4958 15.4499 23.5963 14.7953 22.0451 13.6829V21.7689C22.0451 25.8139 18.7777 29.0928 14.7473 29.0928C13.2434 29.0928 11.8457 28.6366 10.6846 27.8541C12.0098 29.2139 13.8579 30.0575 15.9025 30.0575C19.9332 30.0575 23.2008 26.7786 23.2008 22.7334V14.6476H23.2007ZM24.6261 10.6501C23.8336 9.78118 23.3133 8.65828 23.2007 7.41687V6.90723H22.1056C22.3813 8.48506 23.3214 9.83307 24.6261 10.6501ZM13.2338 24.75C12.791 24.1674 12.5517 23.4547 12.5528 22.7218C12.5528 20.8718 14.0473 19.3717 15.8912 19.3717C16.2348 19.3717 16.5764 19.4245 16.9038 19.5287V15.4778C16.5211 15.4252 16.1349 15.4029 15.7488 15.4111V18.5641C15.4211 18.4598 15.0794 18.4068 14.7357 18.4072C12.8918 18.4072 11.3974 19.907 11.3974 21.7573C11.3974 23.0656 12.1444 24.1983 13.2338 24.75Z" fill="#EB1654"/>
<path d="M22.0459 13.6827C23.5971 14.7951 25.4965 15.4497 27.5482 15.4497V12.3307C26.403 12.0859 25.3891 11.4853 24.6269 10.65C23.3221 9.83286 22.382 8.48486 22.1064 6.9071H19.2301V22.7331C19.2236 24.5781 17.7316 26.072 15.8918 26.072C14.8075 26.072 13.8443 25.5534 13.2343 24.7499C12.145 24.1981 11.398 23.0654 11.398 21.7573C11.398 19.9072 12.8924 18.4071 14.7363 18.4071C15.0895 18.4071 15.43 18.4623 15.7494 18.564V15.411C11.7898 15.4931 8.60535 18.74 8.60535 22.7332C8.60535 24.7266 9.39835 26.5337 10.6854 27.854C11.8465 28.6364 13.2443 29.0928 14.7481 29.0928C18.7786 29.0928 22.046 25.8137 22.046 21.7688L22.0459 13.6827Z" fill="white"/>
<path d="M27.5475 12.3306V11.4873C26.5148 11.4888 25.5023 11.1986 24.6262 10.6497C25.4018 11.5019 26.4231 12.0895 27.5475 12.3306ZM22.1057 6.90696C22.0794 6.75617 22.0592 6.60439 22.0452 6.45202V5.94238H18.0738V21.7686C18.0675 23.6133 16.5756 25.1072 14.7356 25.1072C14.1953 25.1072 13.6853 24.9785 13.2336 24.7498C13.8436 25.5532 14.8068 26.0718 15.8911 26.0718C17.7308 26.0718 19.223 24.578 19.2294 22.7331V6.90696H22.1057ZM15.7489 15.4109V14.5131C15.417 14.4676 15.0825 14.4447 14.7475 14.4449C10.7167 14.4448 7.44922 17.7239 7.44922 21.7686C7.44922 24.3043 8.73339 26.5391 10.6848 27.8537C9.39774 26.5334 8.60473 24.7263 8.60473 22.733C8.60473 18.7398 11.7891 15.493 15.7489 15.4109Z" fill="#0CBAC6"/>
</svg>
